<svg xmlns="http://www.w3.org/2000/svg" viewBox="0 0 256 256"><defs><filter id="luminosity-invert-noclip" width="132.09" height="32766" x="64.02" y="-8591" color-interpolation-filters="sRGB" filterUnits="userSpaceOnUse"><feColorMatrix result="invert" values="-1 0 0 0 1 0 -1 0 0 1 0 0 -1 0 1 0 0 0 1 0"/><feFlood flood-color="#fff" result="bg"/><feBlend in="invert" in2="bg"/></filter><style>.cls-6{fill:#f9921e}</style><mask id="mask" width="132.09" height="32766" x="64.02" y="-8591" maskUnits="userSpaceOnUse"><g filter="url(#luminosity-invert-noclip)"/></mask></defs><g id="Banner"><path id="Background" fill="#dedede" d="M186.03 164.84h1179.35v543.5H186.03z" opacity=".2" transform="rotate(-30 775.69677873 436.58732543)"/></g><g id="Logo"><path fill="#43646b" d="M189.12 106.23V71.3a61.45 61.45 0 0 0-122.89 0v1.22A4.74 4.74 0 0 0 71 77.26h16.46a4.74 4.74 0 0 0 4.74-4.74V71.3a35.48 35.48 0 1 1 71 0v34.94"/><path fill="#0e2339" d="M163.16 106.24H58.32a4.75 4.75 0 0 0-4.74 4.76l.1 114a4.74 4.74 0 0 0 4.74 4.74l137.22-.1a4.74 4.74 0 0 0 4.73-4.74v-114a4.76 4.76 0 0 0-1.4-3.36 4.7 4.7 0 0 0-3.34-1.37h-6.48"/><g mask="url(#mask)"><path d="M191.9 191.75a8.26 8.26 0 0 0-9.73 1.18c-1.55 1.54-2.08 2.7-2.75 5.95-.85 4-2.72 5.81-6.11 5.81a6 6 0 0 1-5.17-2.74c-.74-1.27-.78-2.22-1-26.33-.18-22.26-.27-25.33-.9-27.68-4.15-16-16.52-26.88-33-28.93-8.21-1-19 2.28-26.37 8.14a35.76 35.76 0 0 0-12.23 17.72l-1.15 3.32-4 1.45a33.68 33.68 0 0 0-14.35 8.84A35.93 35.93 0 0 0 66 172.9c-1.84 5.28-2 7.1-2 25.36v17.18l.88 1.71a9.36 9.36 0 0 0 5.35 4.22c.74.16 4.82.33 9.11.35 5.86 0 8.26-.12 9.74-.53A8.76 8.76 0 0 0 95 213c0-2.59 3.18-5.59 5.91-5.59 3.46 0 5.81 2.33 6.27 6.16a8.56 8.56 0 0 0 4.71 7.16c1.47.8 2 .85 10.84.85s9.39-.05 10.91-.85c1.85-1 3.9-3.19 4.29-4.71.21-.58.33-8.37.33-17.33v-16.28l-1-1.71c-1.64-2.86-3.51-3.88-8.19-4.5-6.37-.81-10-2.52-13.73-6.28a22 22 0 0 1-5.63-11c-1.24-7.33 2.4-15.55 8.82-19.82a18.26 18.26 0 0 1 11.35-3.5 16.37 16.37 0 0 1 6.43 1 20.54 20.54 0 0 1 11.22 9c2.74 4.66 2.67 3.42 2.9 31.61.21 23.05.33 25.58.95 27.52 2.05 6.37 6.32 11.56 11.51 14.1 7.13 3.48 14.12 3.71 20.33.69s11.28-10.24 12.59-18.18c.87-4.93-.33-7.81-3.91-9.59Zm-73.13-.85 2.84 1 .11 5.63a30 30 0 0 1-.18 5.63 9.26 9.26 0 0 1-1.82-2.33c-4-6.25-12-10.06-20-9.57a22.38 22.38 0 0 0-17.63 10.04l-1.39 2v-10.7c0-11.77.19-13.2 2.36-17.49 1.89-3.74 6.94-8.37 10.29-9.39.71-.23 1 .12 2.23 3.3a37.36 37.36 0 0 0 23.19 21.88Z" class="cls-6"/></g><path d="M132.84 170.69c1.69-1 2.34-1.87 3.22-4.45a12.86 12.86 0 0 0-.94-10.78 5.3 5.3 0 0 0-5.21-2.81 4.33 4.33 0 0 0-3.55 1.3c-4.23 3.65-4 13.36.39 16.43a6.2 6.2 0 0 0 6.09.31Z" class="cls-6"/><path d="M137.16 159.52a6.21 6.21 0 0 1-3.83 3.87 9.88 9.88 0 0 1-7.27-.25c-5.24-2.68-5.49-11.14-.46-14.33a6.37 6.37 0 0 1 4.22-1.1c3 0 4.61.6 6.21 2.42a8.63 8.63 0 0 1 1.13 9.39Z" class="cls-6"/></g></svg>